<svg width="60" height="60" viewBox="0 0 60 60" fill="none" xmlns="http://www.w3.org/2000/svg">
<path d="M38.405 13.035C42.7172 14.9619 46.2375 18.3101 48.3781 22.5203C50.5186 26.7305 51.1497 31.5477 50.1659 36.1672C49.182 40.7867 46.6429 44.9288 42.9726 47.9014C39.3023 50.8741 34.7231 52.4973 30 52.5C25.9595 52.5003 22.008 51.3138 18.6359 49.0878C15.2639 46.8619 12.62 43.6945 11.0324 39.979C9.44476 36.2635 8.98344 32.1636 9.70569 28.1882C10.4279 24.2128 12.3019 20.5371 15.095 17.6175C17.0186 20.3061 19.5576 22.4954 22.5 24.0025C22.5515 20.699 23.3313 17.4477 24.7837 14.4802C26.2361 11.5127 28.3254 8.90226 30.9025 6.83496C32.8694 9.47294 35.4417 11.5994 38.4025 13.035H38.405Z" stroke="#D8AFF8" stroke-width="5" stroke-linecap="round" stroke-linejoin="round"/>
<path d="M30 45C32.3817 45.0039 34.6757 44.1012 36.416 42.4751C38.1563 40.849 39.2124 38.6215 39.3699 36.245C39.5275 33.8685 38.7746 31.5211 37.2641 29.6796C35.7537 27.838 33.5989 26.6404 31.2375 26.33C28.6559 28.6401 26.9552 31.7739 26.425 35.1975C24.499 34.7255 22.6863 33.8748 21.0925 32.695C20.6291 34.1033 20.5064 35.6014 20.7343 37.0664C20.9623 38.5313 21.5344 39.9213 22.4038 41.1223C23.2731 42.3232 24.4149 43.3009 25.7354 43.9749C27.0559 44.649 28.5174 45.0003 30 45Z" stroke="#D8AFF8" stroke-width="5" stroke-linecap="round" stroke-linejoin="round"/>
</svg>
