<svg width="60" height="60" viewBox="0 0 60 60" fill="none" xmlns="http://www.w3.org/2000/svg">
<path d="M9.95 20.5575C7.61114 23.3179 5.86954 26.533 4.835 30C8.065 40.845 18.11 48.75 30 48.75C32.4825 48.75 34.8825 48.405 37.1575 47.7625M15.57 15.57C19.8516 12.7447 24.8702 11.2422 30 11.25C41.89 11.25 51.9325 19.155 55.1625 29.995C53.3924 35.9183 49.5926 41.029 44.43 44.43M15.57 15.57L7.5 7.5M15.57 15.57L24.695 24.695M44.43 44.43L52.5 52.5M44.43 44.43L35.305 35.305C36.0015 34.6085 36.554 33.7816 36.9309 32.8716C37.3079 31.9616 37.5019 30.9862 37.5019 30.0012C37.5019 29.0163 37.3079 28.0409 36.9309 27.1309C36.554 26.2209 36.0015 25.394 35.305 24.6975C34.6085 24.001 33.7816 23.4485 32.8716 23.0716C31.9616 22.6946 30.9862 22.5006 30.0012 22.5006C29.0163 22.5006 28.0409 22.6946 27.1309 23.0716C26.2209 23.4485 25.394 24.001 24.6975 24.6975M35.3025 35.3025L24.7 24.7" stroke="#D8AFF8" stroke-width="5" stroke-linecap="round" stroke-linejoin="round"/>
</svg>
