<svg width="60" height="60" viewBox="0 0 60 60" fill="none" xmlns="http://www.w3.org/2000/svg">
<path d="M55.403 29.031C57.137 30.7114 58.3106 33.2056 58.3832 35.6253C58.4261 38.6756 57.5941 41.3444 55.4297 43.5936C53.6367 45.2763 51.2586 46.429 48.7724 46.4176C48.627 46.4172 48.4816 46.4168 48.3318 46.4164C48.1822 46.4154 48.0326 46.4145 47.8784 46.4135C47.6492 46.4127 47.6492 46.4127 47.4154 46.4119C47.0399 46.4105 46.6645 46.4086 46.2891 46.4061C46.3463 46.4688 46.4036 46.5315 46.4626 46.596C46.5372 46.6791 46.6118 46.7622 46.6887 46.8479C46.7629 46.9299 46.837 47.0119 46.9135 47.0964C47.3151 47.6034 47.3533 48.1272 47.3437 48.7499C47.4142 48.7088 47.4847 48.6677 47.5573 48.6253C47.6572 48.567 47.7571 48.5087 47.8601 48.4487C47.9726 48.383 48.0851 48.3174 48.201 48.2498C48.4526 48.103 48.7042 47.9564 48.9559 47.8099C49.6104 47.4286 50.2641 47.046 50.9157 46.6597C55.1718 44.1425 55.1718 44.1425 57.0067 44.6035C57.8249 44.9185 58.3667 45.4931 58.7622 46.267C58.9207 47.1651 58.9354 48.0556 58.4766 48.8671C57.7242 49.8018 56.5212 50.4062 55.4956 50.9984C54.6738 51.4785 53.8592 51.9663 53.0566 52.4779C51.7917 53.2837 50.5149 54.0695 49.2352 54.8516C48.8889 55.0646 48.5448 55.2807 48.2011 55.4978C46.6569 56.4649 45.249 57.1327 43.387 56.7337C43.1942 56.687 43.0017 56.6387 42.8096 56.5891C42.7044 56.563 42.5993 56.5369 42.4909 56.51C41.1368 56.1698 39.7927 55.7908 38.449 55.4123C38.1123 55.3176 37.7753 55.2241 37.4382 55.1306C37.3368 55.1017 37.2353 55.0728 37.1308 55.043C36.6149 54.9007 36.166 54.8092 35.625 54.8436C35.6602 54.9062 35.6954 54.9687 35.7317 55.0331C36.0917 55.7385 36.2066 56.3004 35.9766 57.0702C35.5468 58.0102 34.2843 58.517 33.3984 58.9452C32.822 59.1373 32.3141 59.1279 31.7432 58.9452C30.8475 58.3221 30.3757 57.2212 29.8682 56.2865C29.7122 56.0021 29.5558 55.7179 29.3994 55.4337C29.3607 55.3631 29.3219 55.2925 29.282 55.2198C28.9373 54.5924 28.5839 53.9703 28.2275 53.3495C28.1723 53.2522 28.117 53.1549 28.0601 53.0546C27.7522 52.5136 27.4369 51.9784 27.1133 51.4466C27.0427 51.3279 26.972 51.2092 26.8992 51.0869C26.7638 50.8596 26.6261 50.6337 26.4857 50.4096C26.0223 49.623 25.8667 48.9569 26.0156 48.0468C26.3087 47.3746 26.82 47.0776 27.4365 46.7284C27.5256 46.6774 27.6148 46.6264 27.7066 46.5738C28.4183 46.1794 29.0712 45.85 29.9025 45.9758C30.3771 46.1148 30.653 46.334 30.965 46.7142C31.0263 46.7882 31.0875 46.8621 31.1507 46.9383C31.1964 46.9947 31.242 47.0511 31.2891 47.1093C31.4146 47.0367 31.4146 47.0367 31.5427 46.9628C31.6599 46.8951 31.7771 46.8274 31.8979 46.7577C32.0271 46.6831 32.1562 46.6085 32.2893 46.5317C32.5705 46.3694 32.8518 46.2073 33.1331 46.0453C34.0019 45.5454 34.0019 45.5454 34.8665 45.0383C35.567 44.625 36.238 44.2615 37.0312 44.0624C37.1255 44.0358 37.2198 44.0092 37.3169 43.9818C38.0819 43.8885 38.7318 43.9054 39.4716 44.1434C39.605 44.1859 39.7383 44.2284 39.8757 44.2722C40.0919 44.3424 40.0919 44.3424 40.3125 44.4139C40.4671 44.4635 40.6217 44.5129 40.7763 44.5623C41.2592 44.7169 41.7417 44.873 42.2241 45.0292C42.3922 45.0835 42.5603 45.1378 42.7283 45.1921C43.134 45.3233 43.5397 45.4545 43.9453 45.5858C43.8514 45.5324 43.7576 45.4789 43.6609 45.4239C40.9616 43.8715 39.1831 41.7213 38.3546 38.7235C37.7277 36.121 38.1833 33.3628 39.5068 31.0495C39.8526 30.5043 40.234 30.0122 40.6641 29.5311C40.7506 29.4335 40.8372 29.336 40.9264 29.2354C42.6781 27.3718 45.1235 26.2979 47.6697 26.1405C50.6097 26.0798 53.236 27.0102 55.403 29.031ZM42.4667 30.5181C40.8701 32.2456 39.9991 34.44 40.0781 36.7968C40.2766 39.1013 41.3375 41.086 43.053 42.6142C44.8877 44.1566 47.1243 44.571 49.4531 44.4139C51.5456 44.1537 53.3018 42.9698 54.6455 41.4032C56.0659 39.5587 56.5767 37.4481 56.3672 35.1561C56.1359 33.5684 55.4303 32.1341 54.375 30.9374C54.2981 30.8495 54.2212 30.7615 54.142 30.671C52.6906 29.1161 50.7308 28.3118 48.6328 28.1249C46.3339 28.0582 44.1344 28.9415 42.4667 30.5181ZM35.2368 47.1386C35.1203 47.2056 35.0037 47.2726 34.8836 47.3417C34.6517 47.4751 34.4201 47.6089 34.1886 47.7432C33.8247 47.9542 33.4594 48.1628 33.0937 48.371C32.8043 48.5357 32.5154 48.7014 32.2266 48.8671C32.4059 49.3478 32.6344 49.7929 32.8816 50.2413C32.9423 50.3519 32.9423 50.3519 33.0042 50.4648C33.0894 50.6199 33.1748 50.7749 33.2604 50.9299C33.3909 51.1666 33.5205 51.4038 33.65 51.6411C33.7331 51.7922 33.8164 51.9433 33.8997 52.0943C33.9381 52.165 33.9766 52.2357 34.0162 52.3085C34.2069 52.6515 34.3891 52.9449 34.6875 53.203C34.8011 53.1232 34.9147 53.0435 35.0317 52.9613C35.9293 52.4584 37.1118 52.978 38.0343 53.2328C38.2781 53.3 38.5222 53.3662 38.7664 53.4322C39.4598 53.6196 40.1526 53.809 40.8454 53.9989C41.2711 54.1155 41.6971 54.231 42.1233 54.3458C42.2845 54.3895 42.4456 54.4336 42.6066 54.4783C44.1061 54.8938 45.0573 54.9888 46.4465 54.2236C46.7296 54.0545 47.0077 53.8792 47.2852 53.7011C47.5012 53.5649 47.7172 53.4288 47.9333 53.2927C48.0466 53.221 48.1599 53.1494 48.2767 53.0755C48.9001 52.6833 49.5284 52.2991 50.1562 51.9139C51.1861 51.2807 52.2156 50.6468 53.2426 50.009C53.7709 49.681 54.3005 49.3553 54.8318 49.0323C55.0021 48.9284 55.0021 48.9284 55.1757 48.8223C55.3939 48.6891 55.6124 48.5565 55.8313 48.4246C55.9288 48.3648 56.0264 48.3051 56.1269 48.2436C56.2562 48.1652 56.2562 48.1652 56.3881 48.0851C56.634 47.9247 56.634 47.9247 56.8359 47.578C56.8264 47.1594 56.8264 47.1594 56.7187 46.7577C56.2736 46.4609 56.0732 46.4825 55.556 46.5512C53.5123 47.057 51.5883 48.5908 49.7958 49.67C47.9049 50.805 46.4024 51.494 44.1797 51.0277C44.0817 51.0075 43.9836 50.9872 43.8826 50.9664C43.0156 50.7806 42.1574 50.5624 41.3013 50.3319C41.1737 50.2986 41.0461 50.2653 40.9147 50.2309C40.7956 50.1978 40.6765 50.1646 40.5537 50.1305C40.4478 50.1016 40.3418 50.0726 40.2326 50.0428C39.9075 49.8979 39.787 49.7585 39.6094 49.453C39.5618 49.0724 39.5785 48.8281 39.7192 48.4716C40.11 48.1637 40.5424 48.2336 41.0156 48.2811C41.5331 48.3938 42.0387 48.5411 42.5464 48.6913C43.7527 49.0607 43.7527 49.0607 45 49.1014C45.2681 48.9232 45.2681 48.9232 45.3516 48.6327C45.3459 48.3149 45.3459 48.3149 45.1172 48.0468C44.9076 47.9481 44.9076 47.9481 44.6585 47.8765C44.5636 47.8468 44.4686 47.8171 44.3708 47.7865C43.8345 47.6277 43.2969 47.4741 42.7588 47.3217C41.6334 47.0003 40.5293 46.6368 39.4322 46.2291C37.8123 45.6409 36.659 46.3074 35.2368 47.1386ZM29.2969 48.0468C28.8715 48.2788 28.4461 48.5108 28.0078 48.7499C28.6242 50.0414 29.3259 51.2761 30.041 52.5149C30.375 53.0963 30.7036 53.6808 31.0327 54.265C31.5406 55.1654 32.0519 56.0632 32.5781 56.953C33.119 56.7985 33.5272 56.5764 33.9844 56.2499C33.4058 55.028 32.7567 53.859 32.0687 52.6955C31.6774 52.032 31.2937 51.3654 30.9219 50.6908C30.8821 50.6185 30.8422 50.5462 30.8011 50.4716C30.6068 50.1187 30.4135 49.7654 30.2211 49.4114C30.1513 49.2842 30.0815 49.157 30.0096 49.0259C29.9482 48.9131 29.8869 48.8003 29.8237 48.684C29.6446 48.3672 29.6446 48.3672 29.2969 48.0468Z" fill="#D8AFF8"/>
<path d="M46.0623 13.9288C46.3845 13.9159 46.7064 13.9074 47.0288 13.9015C47.1252 13.8984 47.2216 13.8953 47.3209 13.8922C47.7232 13.891 47.9815 13.8955 48.3071 14.1439C48.8091 14.7944 48.5175 15.8789 48.4254 16.6467C48.3857 16.9305 48.345 17.2141 48.3032 17.4977C48.2838 17.6409 48.2644 17.7842 48.2444 17.9318C48.0488 19.2907 48.0488 19.2907 47.6953 19.922C47.2593 20.2126 47.0393 20.2106 46.5234 20.1563C46.1347 19.9006 46.0663 19.7408 45.9668 19.2848C45.9431 18.9476 45.9352 18.6189 45.9375 18.2813C45.8056 18.4366 45.8056 18.4366 45.6711 18.5949C45.0975 19.2681 44.5223 19.9377 43.9233 20.5885C43.5495 20.9956 43.1929 21.4101 42.8467 21.8409C42.3935 22.403 41.9121 22.9302 41.419 23.4568C41.0537 23.849 40.7068 24.2497 40.3711 24.6681C39.8626 25.3014 39.3159 25.8926 38.7625 26.4863C38.5135 26.7534 38.268 27.0228 38.0273 27.2975C37.9656 27.3676 37.9038 27.4376 37.8401 27.5099C37.6509 27.7336 37.4692 27.9608 37.2881 28.191C37.2278 28.2657 37.1675 28.3403 37.1054 28.4172C36.9854 28.5659 36.8673 28.7162 36.7516 28.8682C36.447 29.2412 36.2172 29.4596 35.7344 29.5501C35.1908 29.528 35.0643 29.4415 34.6875 29.0626C34.5531 28.7201 34.5531 28.7201 34.4673 28.3219C34.4345 28.1754 34.4018 28.0289 34.368 27.878C34.3353 27.7211 34.3026 27.5642 34.27 27.4073C34.2352 27.2481 34.2002 27.0889 34.1649 26.9298C34.0956 26.6149 34.0274 26.2998 33.9605 25.9844C33.8581 25.5042 33.7511 25.0253 33.6431 24.5464C33.5601 24.1771 33.4791 23.8074 33.3984 23.4376C33.2394 24.3416 33.1094 25.2432 33.0139 26.156C33.0008 26.2787 32.9876 26.4014 32.974 26.5278C32.9457 26.7914 32.9176 27.0549 32.8896 27.3185C32.8452 27.7358 32.8001 28.153 32.7549 28.5702C32.6263 29.7553 32.4982 30.9404 32.3723 32.1258C32.295 32.8532 32.2163 33.5804 32.1367 34.3076C32.1067 34.5841 32.0772 34.8606 32.0483 35.1372C32.0078 35.523 31.9657 35.9086 31.9231 36.2941C31.9116 36.4081 31.9001 36.5222 31.8882 36.6396C31.8245 37.1996 31.765 37.6291 31.4062 38.086C31.1083 38.312 30.9629 38.3215 30.5859 38.3058C30.1687 38.1841 30.0404 38.0681 29.7656 37.7345C29.6158 37.3622 29.6158 37.3622 29.4865 36.9175C29.4624 36.8363 29.4384 36.755 29.4136 36.6714C29.3348 36.4042 29.2581 36.1364 29.1815 35.8686C29.1271 35.6827 29.0726 35.4968 29.018 35.311C28.8749 34.8228 28.7336 34.3341 28.5926 33.8453C28.4484 33.3462 28.3024 32.8476 28.1566 32.3489C27.8709 31.3711 27.5872 30.3928 27.3047 29.4142C27.2923 29.4891 27.28 29.5641 27.2672 29.6413C26.9663 31.4656 26.6641 33.2897 26.3603 35.1136C26.2134 35.9956 26.067 36.8776 25.9217 37.7599C25.795 38.5289 25.6675 39.2978 25.5389 40.0666C25.4709 40.4735 25.4032 40.8806 25.3367 41.2878C25.2623 41.7426 25.186 42.197 25.1096 42.6514C25.0769 42.8537 25.0769 42.8537 25.0437 43.0601C25.0225 43.1841 25.0013 43.3082 24.9795 43.436C24.9616 43.5435 24.9438 43.651 24.9254 43.7617C24.8312 44.1088 24.7029 44.3573 24.4922 44.6485C24.0207 44.862 23.7822 44.9162 23.2837 44.7657C22.7961 44.4029 22.7582 43.9675 22.6583 43.3836C22.6352 43.2136 22.613 43.0435 22.5913 42.8733C22.5787 42.779 22.5662 42.6848 22.5532 42.5877C22.5115 42.2731 22.4707 41.9584 22.4299 41.6437C22.4001 41.4176 22.3703 41.1916 22.3403 40.9656C22.2761 40.4796 22.2123 39.9935 22.1489 39.5073C22.0487 38.7392 21.9474 37.9712 21.846 37.2032C21.6676 35.8509 21.4901 34.4986 21.3127 33.1462C21.0454 31.1081 20.7775 29.0701 20.5087 27.0323C20.408 26.2682 20.3077 25.504 20.2077 24.7398C20.1456 24.2655 20.0832 23.7913 20.0207 23.317C19.9916 23.0964 19.9628 22.8758 19.9341 22.6552C19.895 22.355 19.8554 22.055 19.8157 21.7549C19.7987 21.6226 19.7987 21.6226 19.7813 21.4876C19.7256 21.0423 19.7256 21.0423 19.5703 20.6251C19.5121 20.738 19.5121 20.738 19.4528 20.8531C18.7726 22.1712 18.0899 23.4867 17.373 24.7853C16.7298 25.9521 16.1212 27.1356 15.514 28.3214C15.0061 29.313 14.4923 30.2997 13.9526 31.2745C13.3404 32.3807 12.763 33.5035 12.1875 34.629C11.4368 36.097 10.6747 37.5565 9.87139 38.9966C9.77 39.1796 9.67006 39.3633 9.57121 39.5476C9.52051 39.6414 9.46981 39.7353 9.41757 39.8319C9.37275 39.9158 9.32794 39.9997 9.28176 40.0862C9.13506 40.3215 9.00633 40.4914 8.78906 40.6642C7.98549 40.7534 7.98549 40.7534 7.56592 40.4737C7.33828 40.1277 7.29233 39.9062 7.26562 39.4923C7.3711 39.2071 7.47911 38.972 7.62451 38.7086C7.66586 38.63 7.70722 38.5514 7.74982 38.4704C7.84508 38.2894 7.94109 38.1088 8.0377 37.9285C8.22231 37.5812 8.40225 37.2317 8.5817 36.8817C9.26773 35.5453 9.96765 34.2182 10.6932 32.9029C11.2752 31.8416 11.8249 30.7641 12.3765 29.6868C12.9387 28.5894 13.5128 27.5008 14.1096 26.4218C14.6405 25.4564 15.1425 24.4767 15.6445 23.4962C16.2631 22.2882 16.8899 21.0868 17.547 19.8992C17.8507 19.349 18.1462 18.7956 18.4332 18.2365C18.4972 18.112 18.5612 17.9874 18.6272 17.8591C18.7502 17.6187 18.8725 17.3779 18.9939 17.1367C19.0489 17.0292 19.1039 16.9217 19.1606 16.811C19.2328 16.6681 19.2328 16.6681 19.3064 16.5223C19.4531 16.2892 19.4531 16.2892 19.8047 16.0548C20.2677 16.0033 20.5312 15.9981 20.9341 16.2415C21.2893 16.6034 21.3153 16.83 21.3781 17.3299C21.3889 17.4096 21.3996 17.4894 21.4107 17.5715C21.4456 17.8343 21.4768 18.0974 21.5081 18.3607C21.5321 18.5462 21.5563 18.7317 21.5807 18.9172C21.6307 19.2997 21.6793 19.6823 21.7268 20.0651C21.7908 20.58 21.8588 21.0944 21.9288 21.6086C22.0489 22.4918 22.1659 23.3755 22.2822 24.2592C22.3396 24.695 22.3973 25.1306 22.4549 25.5664C22.5629 26.3838 22.6708 27.2013 22.7786 28.0188C22.9017 28.9527 23.025 29.8866 23.1484 30.8205C23.4013 32.7345 23.6539 34.6485 23.9062 36.5626C24.2918 34.3836 24.6772 32.2047 25.0318 30.0204C25.0721 29.7721 25.1127 29.5238 25.1534 29.2755C25.1668 29.1942 25.1801 29.1128 25.1938 29.0291C25.2205 28.8665 25.2471 28.704 25.2738 28.5415C25.3416 28.1275 25.4086 27.7134 25.4746 27.299C25.5408 26.8831 25.6088 26.4674 25.678 26.0519C25.7156 25.8233 25.7513 25.5944 25.787 25.3654C25.8101 25.2281 25.8333 25.0908 25.8571 24.9493C25.8765 24.8294 25.8959 24.7095 25.9158 24.586C26.0346 24.1956 26.2054 23.9671 26.4844 23.672C26.7444 23.5942 26.7444 23.5942 27.0117 23.5987C27.144 23.5965 27.144 23.5965 27.2791 23.5942C27.6643 23.7094 27.7803 23.9316 28.0078 24.2579C28.1487 24.6176 28.1487 24.6176 28.2654 25.0237C28.2981 25.1352 28.2981 25.1352 28.3314 25.2491C28.4025 25.4928 28.4716 25.7371 28.5406 25.9814C28.5898 26.1514 28.639 26.3213 28.6884 26.4912C28.8175 26.9369 28.945 27.383 29.0721 27.8292C29.2024 28.2851 29.3341 28.7405 29.4658 29.196C29.7235 30.0886 29.9795 30.9817 30.2344 31.8751C30.2478 31.7574 30.2611 31.6396 30.2749 31.5183C30.8614 26.3576 30.8614 26.3576 30.8998 26.0193C30.9255 25.7936 30.9511 25.5679 30.9767 25.3422C31.0411 24.7745 31.1059 24.2068 31.1714 23.6392C31.2934 22.5793 31.4122 21.5195 31.5184 20.4579C31.5665 19.9792 31.6164 19.5008 31.6664 19.0223C31.6896 18.7952 31.7119 18.568 31.7332 18.3406C31.7627 18.0264 31.7954 17.7127 31.8287 17.3989C31.8365 17.3065 31.8443 17.2142 31.8524 17.119C31.904 16.6629 31.9821 16.4191 32.2697 16.0559C32.5781 15.8204 32.5781 15.8204 32.9883 15.7472C33.5146 15.8411 33.6489 15.9944 33.9844 16.4063C34.1159 16.7218 34.1858 17.0425 34.2553 17.3765C34.288 17.5206 34.288 17.5206 34.3214 17.6677C34.3925 17.9837 34.4606 18.3002 34.5287 18.6169C34.5776 18.8368 34.6266 19.0567 34.6759 19.2765C34.8048 19.8538 34.931 20.4317 35.0568 21.0098C35.1856 21.6 35.317 22.1898 35.4481 22.7796C35.7048 23.9359 35.9587 25.0928 36.2109 26.2501C36.3186 26.1177 36.3186 26.1177 36.4285 25.9827C36.5703 25.8088 36.5703 25.8088 36.7149 25.6314C36.8085 25.5166 36.902 25.4018 36.9984 25.2834C37.3091 24.9086 37.6332 24.5517 37.9688 24.1993C38.3944 23.7456 38.8029 23.2865 39.1919 22.8004C39.6638 22.212 40.171 21.6652 40.6876 21.1166C41.1613 20.6108 41.6011 20.0854 42.0341 19.5443C42.402 19.1018 42.7946 18.6847 43.1879 18.2649C43.6701 17.7472 44.1196 17.2104 44.5615 16.6577C44.7656 16.4063 44.7656 16.4063 45 16.172C44.7945 16.1781 44.7945 16.1781 44.5848 16.1843C44.4034 16.1876 44.222 16.1908 44.0405 16.1939C43.9504 16.1969 43.8603 16.1998 43.7675 16.2029C43.2205 16.2099 42.8663 16.1768 42.4219 15.8204C42.2385 15.4537 42.223 15.0457 42.3047 14.6485C42.5415 14.3599 42.6933 14.2008 43.0584 14.1051C43.2164 14.094 43.2164 14.094 43.3777 14.0827C43.4965 14.0736 43.6152 14.0645 43.7376 14.0551C43.8642 14.0479 43.9907 14.0407 44.1211 14.0333C44.2509 14.0247 44.3807 14.0162 44.5144 14.0074C45.0302 13.9758 45.5461 13.9527 46.0623 13.9288Z" fill="#D8AFF8"/>
<path d="M41.3672 3.04693C41.3604 2.97623 41.3536 2.90553 41.3466 2.83269C41.3035 2.06906 41.3035 2.06906 41.6162 1.69195C42.0127 1.4937 42.2189 1.4506 42.6562 1.52349C43.3575 1.91372 43.5377 2.59863 43.8061 3.3106C43.8538 3.42918 43.9015 3.54777 43.9506 3.66994C44.2092 4.34031 44.4246 4.90738 44.2969 5.62505C43.7835 6.22216 43.0961 6.44844 42.3706 6.71636C42.2633 6.75843 42.1559 6.8005 42.0454 6.84385C41.453 7.0671 40.9552 7.22488 40.3125 7.14849C39.9683 6.90679 39.9683 6.90679 39.7266 6.56255C39.6606 6.14507 39.6606 6.14507 39.7266 5.74224C39.9733 5.42741 40.213 5.26169 40.5469 5.03912C33.6254 2.3093 26.1238 2.37977 19.2604 5.31423C16.6751 6.47504 14.3785 8.08049 12.2435 9.92837C12.0858 10.0648 11.9273 10.2002 11.7686 10.3354C11.271 10.7664 10.8214 11.2121 10.3972 11.7156C10.2651 11.8711 10.1293 12.0236 9.98977 12.1724C6.47006 15.942 4.34379 20.9723 3.51562 26.0157C3.50057 26.1029 3.48552 26.1902 3.47002 26.28C2.84118 30.0689 3.3173 34.0674 4.33593 37.7344C4.36426 37.8376 4.39258 37.9408 4.42176 38.0471C5.17491 40.7127 6.47112 43.3396 8.08593 45.586C8.14052 45.6636 8.19511 45.7412 8.25136 45.8211C9.11728 47.0472 10.0873 48.1439 11.1328 49.2188C11.2209 49.3116 11.3089 49.4043 11.3997 49.4999C15.2824 53.5176 20.8263 55.9881 26.2852 56.8158C26.3822 56.8307 26.4791 56.8455 26.579 56.8608C26.7588 56.8873 26.939 56.9119 27.1195 56.9341C27.507 56.989 27.7473 57.0499 28.0582 57.2938C28.3017 57.6185 28.3511 57.8373 28.3594 58.2422C28.2204 58.5641 28.1021 58.76 27.8174 58.966C27.4115 59.1068 27.041 59.0494 26.6235 58.9966C26.486 58.98 26.486 58.98 26.3456 58.9631C23.4093 58.5788 20.6116 57.7238 17.9297 56.4844C17.8451 56.4455 17.7605 56.4065 17.6734 56.3663C13.7369 54.5292 10.0032 51.645 7.38281 48.1641C7.33245 48.098 7.28209 48.0319 7.2302 47.9638C6.47689 46.9728 5.78159 45.9605 5.15625 44.8829C5.11049 44.8051 5.06474 44.7274 5.0176 44.6473C2.43401 40.2377 1.14676 35.2028 1.14257 30.1026C1.14249 30.0153 1.14242 29.928 1.14233 29.8381C1.14463 28.2319 1.25242 26.6636 1.52343 25.0782C1.5423 24.9677 1.56116 24.8572 1.5806 24.7434C2.60161 19.0341 5.36911 13.8822 9.375 9.72661C9.43759 9.66145 9.50019 9.59629 9.56468 9.52915C10.392 8.6723 11.2402 7.87389 12.1875 7.14849C12.2511 7.09932 12.3148 7.05015 12.3804 6.99949C13.5516 6.09932 14.7787 5.31317 16.0547 4.57037C16.1265 4.52796 16.1982 4.48554 16.2722 4.44185C23.7078 0.085115 33.4809 -0.176181 41.3672 3.04693Z" fill="#D8AFF8"/>
<path d="M52.3828 30.7032C52.6666 30.9681 52.7278 31.1113 52.7696 31.4979C52.7258 31.9672 52.5809 32.1707 52.3022 32.5489C52.2558 32.613 52.2093 32.6772 52.1614 32.7433C52.0584 32.8852 51.9546 33.0267 51.8502 33.1676C51.6687 33.4134 51.49 33.6609 51.3116 33.9089C51.0519 34.2702 50.7914 34.6309 50.5302 34.9911C50.2083 35.4354 49.8886 35.8813 49.5703 36.3282C49.065 37.0374 48.5548 37.743 48.0439 38.4482C47.5319 39.1564 47.0274 39.8696 46.5288 40.5871C45.6288 41.8732 45.6288 41.8732 45.2344 42.0704C44.8266 42.1006 44.5156 42.1131 44.1357 41.9532C43.8486 41.5998 43.8043 41.2244 43.8281 40.7813C43.959 40.4544 44.156 40.1949 44.3701 39.9171C44.4284 39.8371 44.4866 39.7572 44.5466 39.6749C44.6711 39.5044 44.7967 39.3348 44.9233 39.1659C45.1149 38.9093 45.3025 38.6503 45.4889 38.39C45.8061 37.947 46.1256 37.5057 46.4459 37.0649C46.7677 36.622 47.0888 36.1786 47.4097 35.7349C47.4727 35.6478 47.5357 35.5607 47.6007 35.4709C48.0301 34.8762 48.4533 34.2774 48.8745 33.6768C49.3549 32.9927 49.8455 32.3171 50.3467 31.648C50.4064 31.5682 50.466 31.4885 50.5275 31.4063C51.1146 30.6273 51.1146 30.6273 51.416 30.4981C51.7938 30.4561 52.038 30.5492 52.3828 30.7032Z" fill="#D8AFF8"/>
<path d="M52.3169 37.2876C52.9595 37.6505 53.3347 38.0857 53.6082 38.7794C53.8151 39.5726 53.7563 40.3393 53.3441 41.049C52.8934 41.6914 52.3345 42.1431 51.5625 42.3046C50.7742 42.3966 50.1218 42.272 49.4531 41.8359C48.8542 41.2997 48.4561 40.7661 48.3737 39.9504C48.3379 39.1444 48.498 38.5028 49.021 37.8808C50.036 37.031 51.0671 36.696 52.3169 37.2876ZM50.5225 39.2211C50.3658 39.4881 50.3658 39.4881 50.4053 39.7998C50.491 40.1167 50.491 40.1167 50.8594 40.3125C51.2487 40.2745 51.3993 40.2412 51.6797 39.9609C51.7224 39.6274 51.7268 39.4469 51.5405 39.1626C51.1582 38.912 50.8634 38.9143 50.5225 39.2211Z" fill="#D8AFF8"/>
<path d="M46.6846 30.5347C47.2895 30.8889 47.7914 31.4546 48.0469 32.1095C48.1328 32.9206 48.1763 33.773 47.742 34.4907C47.1434 35.2098 46.4224 35.5766 45.4981 35.669C44.7181 35.6436 43.9673 35.359 43.4253 34.7901C42.9483 34.156 42.7284 33.4136 42.7734 32.6222C42.8933 31.8926 43.2797 31.3197 43.8281 30.835C44.6622 30.2442 45.734 30.108 46.6846 30.5347ZM44.8828 32.5782C44.7545 32.7887 44.7545 32.7887 44.7656 33.047C44.9826 33.3695 44.9826 33.3695 45.2344 33.6329C45.695 33.5656 45.695 33.5656 46.0547 33.2813C46.1035 32.9298 46.1035 32.9298 46.0547 32.5782C45.5743 32.258 45.3632 32.258 44.8828 32.5782Z" fill="#D8AFF8"/>
<path d="M29.187 48.5889C29.5312 48.6328 29.5312 48.6328 29.7656 48.8672C29.8047 49.234 29.8215 49.4741 29.6338 49.7974C29.3055 49.9834 29.066 49.8915 28.7109 49.8047C28.5718 49.4824 28.5718 49.4824 28.4766 49.1016C28.6467 48.6975 28.7507 48.6423 29.187 48.5889Z" fill="#D8AFF8"/>
</svg>
