<svg width="60" height="60" viewBox="0 0 60 60" fill="none" xmlns="http://www.w3.org/2000/svg">
<path d="M57.3633 2.06539C57.8742 2.55082 58.1529 2.91472 58.2005 3.62957C58.1826 4.77597 57.5913 5.77661 57.1069 6.78951C57.0034 7.01107 56.9002 7.23276 56.7973 7.45458C56.5926 7.895 56.3868 8.33483 56.1798 8.7742C55.8194 9.54125 55.4734 10.3143 55.1294 11.0888C55.0088 11.3585 54.8881 11.6281 54.7673 11.8977C54.7051 12.0367 54.6429 12.1756 54.5788 12.3188C54.1749 13.2203 53.7696 14.1211 53.3643 15.0219C53.3201 15.1201 53.2759 15.2183 53.2304 15.3194C52.4802 16.9867 51.7268 18.6525 50.9728 20.3181C50.3428 21.7097 49.715 23.1023 49.091 24.4967C48.3353 26.1849 47.5756 27.8712 46.8163 29.5578C46.5042 30.2509 46.1924 30.9441 45.8807 31.6374C44.8725 33.8797 43.8616 36.1209 42.8474 38.3605C42.804 38.4564 42.7606 38.5522 42.716 38.651C42.6301 38.8405 42.544 39.0299 42.4576 39.2192C42.2306 39.7179 42.0095 40.2184 41.7952 40.7228C41.7494 40.8291 41.7036 40.9353 41.6564 41.0448C41.5691 41.2474 41.4832 41.4508 41.3991 41.6548C40.9937 42.5883 40.4702 42.9779 39.5238 43.3754C39.4476 43.4078 39.3713 43.4402 39.2928 43.4735C39.0399 43.5807 38.7863 43.6861 38.5327 43.7915C38.3505 43.8682 38.1684 43.9451 37.9863 44.0221C37.4962 44.2288 37.0055 44.434 36.5146 44.6388C36.1123 44.8068 35.7103 44.9754 35.3083 45.144C34.4737 45.4942 33.6388 45.8436 32.8036 46.1925C31.3842 46.7853 29.9667 47.3822 28.5498 47.9809C28.4408 48.027 28.3318 48.073 28.2195 48.1205C27.4458 48.4474 26.6721 48.7744 25.8984 49.1015C25.0147 49.4752 24.1309 49.8487 23.2471 50.2221C23.1379 50.2682 23.0288 50.3143 22.9164 50.3618C21.21 51.0826 19.5019 51.7991 17.7929 52.5134C16.0675 53.2347 14.3442 53.9609 12.6217 54.6892C10.706 55.4991 8.78804 56.3038 6.86897 57.1057C6.76772 57.1481 6.66647 57.1904 6.56216 57.234C6.3748 57.3123 6.18743 57.3906 6.00003 57.4688C5.91602 57.5039 5.832 57.539 5.74544 57.5752C5.66601 57.6083 5.58658 57.6414 5.50474 57.6756C5.35003 57.741 5.19584 57.8077 5.0422 57.8756C4.35981 58.1769 3.78522 58.2164 3.04687 58.125C2.47065 57.8574 2.17522 57.5091 1.87499 56.9531C1.61448 56.0971 1.98876 55.2729 2.32131 54.4834C2.37018 54.3667 2.37018 54.3667 2.42004 54.2475C2.52824 53.9894 2.63741 53.7318 2.74658 53.4741C2.82471 53.2883 2.90279 53.1024 2.98081 52.9166C3.19219 52.4135 3.40445 51.9109 3.61697 51.4083C3.79538 50.9864 3.97347 50.5642 4.15157 50.1421C4.47598 49.3733 4.80056 48.6045 5.12554 47.8359C5.76408 46.3256 6.39888 44.8137 7.03124 43.3007C7.74826 41.5855 8.4684 39.8716 9.19189 38.1591C9.26103 37.9955 9.26103 37.9955 9.33156 37.8285C9.70519 36.9442 10.079 36.06 10.4529 35.1758C10.7797 34.4027 11.1065 33.6296 11.4331 32.8564C11.4792 32.7473 11.5253 32.6382 11.5728 32.5257C12.2058 31.0271 12.8359 29.5273 13.4634 28.0264C13.7226 27.4067 13.9821 26.7872 14.2415 26.1677C14.4779 25.6031 14.7139 25.0384 14.9495 24.4736C15.2044 23.8625 15.46 23.2518 15.7161 22.6413C15.814 22.4077 15.9115 22.1739 16.0088 21.9401C16.144 21.6154 16.28 21.2911 16.4163 20.9669C16.4757 20.8233 16.4757 20.8233 16.5363 20.6769C17.1217 19.292 17.8966 18.7762 19.2334 18.1883C19.3233 18.1481 19.4132 18.1078 19.5058 18.0664C19.8005 17.9347 20.0955 17.804 20.3906 17.6733C20.6 17.5799 20.8094 17.4865 21.0187 17.3929C21.4531 17.1989 21.8877 17.0051 22.3224 16.8116C23.2239 16.41 24.1236 16.0045 25.0233 15.599C25.5102 15.3796 25.9973 15.1605 26.4844 14.9414C26.6797 14.8535 26.875 14.7656 27.0703 14.6777C42.3047 7.82222 42.3047 7.82222 42.5976 7.69039C42.793 7.60249 42.9883 7.5146 43.1836 7.4267C43.6717 7.20706 44.1598 6.98742 44.6479 6.76779C45.822 6.23951 45.822 6.23951 46.996 5.71096C47.0934 5.6671 47.1908 5.62323 47.2911 5.57804C47.488 5.48936 47.6849 5.40067 47.8817 5.31196C48.3693 5.09229 48.8571 4.87301 49.3452 4.65456C50.2394 4.25405 51.132 3.85097 52.0196 3.43603C52.424 3.24729 52.8293 3.06054 53.2347 2.87397C53.4256 2.78547 53.6161 2.69604 53.8061 2.60558C56.1374 1.49623 56.1374 1.49623 57.3633 2.06539ZM23.9795 24.1259C22.4665 25.7125 21.607 27.7752 21.6211 29.9633C21.6218 30.0859 21.6224 30.2085 21.6231 30.3347C21.6763 32.6645 22.7171 34.6104 24.375 36.2109C26.0311 37.7406 28.1066 38.4563 30.3516 38.4375C31.4881 38.3684 32.4814 38.0858 33.5156 37.6171C33.6801 37.5433 33.6801 37.5433 33.848 37.4679C35.9741 36.414 37.2678 34.5123 38.0978 32.3606C38.734 30.3006 38.3957 27.9418 37.4341 26.0522C36.2824 23.9363 34.3246 22.5079 32.0434 21.8115C29.016 21.0915 26.1919 22.0268 23.9795 24.1259Z" fill="#D8AFF8"/>
</svg>
